<svg width="20" height="23" viewBox="0 0 65 72" fill="none" xmlns="http://www.w3.org/2000/svg">
<path fill-rule="evenodd" clip-rule="evenodd" d="M51.1963 22.8056C54.3971 33.3417 48.1082 45.2611 36.1307 48.8998C24.1532 52.5385 12.2969 46.1315 9.09613 35.5954C5.89531 25.0594 12.1841 13.14 24.1616 9.50128C36.1392 5.86256 47.9954 12.2695 51.1963 22.8056ZM43.5503 54.5116C41.9444 55.3247 40.243 56.0115 38.4562 56.5543C22.603 61.3705 6.03103 53.028 1.44156 37.9209C-3.14791 22.8138 5.98309 6.66282 21.8362 1.84671C37.6893 -2.9694 54.2614 5.37309 58.8508 20.4802C62.1126 31.2169 58.4441 42.4808 50.3577 49.8283C55.153 54.6699 62.1212 61.7728 64.3276 64.3698C67.8033 68.4609 54.6017 73.9211 52.8637 71.1935C51.7707 69.4784 46.9664 60.753 43.5503 54.5116Z" fill="#726F6F"/>
</svg>
